<?xml version="1.0" encoding="UTF-8" standalone="no"?>
<!DOCTYPE svg PUBLIC "-//W3C//DTD SVG 1.1//EN" "http://www.w3.org/Graphics/SVG/1.1/DTD/svg11.dtd">
<svg width="100%" height="100%" viewBox="0 0 24 24" version="1.1" xmlns="http://www.w3.org/2000/svg" xmlns:xlink="http://www.w3.org/1999/xlink" xml:space="preserve" xmlns:serif="http://www.serif.com/" style="fill-rule:evenodd;clip-rule:evenodd;stroke-linejoin:round;stroke-miterlimit:2;">
    <g transform="matrix(-1,0,0,1,24,0)">
        <rect x="0" y="0" width="24" height="24" style="fill:none;fill-rule:nonzero;"/>
    </g>
    <g transform="matrix(-1,0,0,1,24,0)">
        <path d="M10.09,15.59L11.5,17L16.5,12L11.5,7L10.09,8.41L12.67,11L3,11L3,13L12.67,13L10.09,15.59ZM19,3L5,3C3.89,3 3,3.9 3,5L3,9L5,9L5,5L19,5L19,19L5,19L5,15L3,15L3,19C3,20.1 3.89,21 5,21L19,21C20.1,21 21,20.1 21,19L21,5C21,3.9 20.1,3 19,3Z" style="fill-rule:nonzero;"/>
    </g>
</svg>
