<?xml version="1.0" encoding="UTF-8" standalone="no"?>
<!DOCTYPE svg PUBLIC "-//W3C//DTD SVG 1.1//EN" "http://www.w3.org/Graphics/SVG/1.1/DTD/svg11.dtd">
<svg width="100%" height="100%" viewBox="0 0 24 24" version="1.1" xmlns="http://www.w3.org/2000/svg" xmlns:xlink="http://www.w3.org/1999/xlink" xml:space="preserve" xmlns:serif="http://www.serif.com/" style="fill-rule:evenodd;clip-rule:evenodd;stroke-linejoin:round;stroke-miterlimit:2;">
    <rect x="0" y="0" width="24" height="24" style="fill:none;fill-rule:nonzero;"/>
    <path d="M17.66,7.93L12,2.27L6.34,7.93C3.22,11.05 3.22,16.12 6.34,19.24C7.9,20.8 9.95,21.58 12,21.58C14.05,21.58 16.1,20.8 17.66,19.24C20.78,16.12 20.78,11.05 17.66,7.93ZM12,19.59C10.4,19.59 8.89,18.97 7.76,17.83C6.62,16.69 6,15.19 6,13.59C6,11.99 6.62,10.48 7.76,9.35L12,5.1L12,19.59Z" style="fill:rgb(128,128,128);fill-rule:nonzero;"/>
</svg>
